<?xml version="1.0"?>
<svg xmlns="http://www.w3.org/2000/svg" xmlns:xlink="http://www.w3.org/1999/xlink" xmlns:svgjs="http://svgjs.com/svgjs" version="1.1" width="512" height="512" x="0" y="0" viewBox="0 0 512 512" style="enable-background:new 0 0 512 512" xml:space="preserve" class=""><g transform="matrix(0.4,0,0,0.4,153.60000286102303,153.60008239746088)">
<g xmlns="http://www.w3.org/2000/svg">
	<g>
		
			<rect x="182.331" y="194.356" transform="matrix(0.7071 -0.7071 0.7071 0.7071 -106.0382 255.9958)" width="147.329" height="123.283" fill="#e99413" data-original="#000000" style="" class=""/>
	</g>
</g>
<g xmlns="http://www.w3.org/2000/svg">
	<g>
		<path d="M478.389,158.48L353.523,33.613c-17.108-17.109-44.947-17.109-62.056,0l-25.123,25.124    c-8.289,8.289-12.853,19.307-12.853,31.028c0,11.721,4.565,22.74,12.853,31.028L391.21,245.659    c8.289,8.288,19.307,12.853,31.028,12.853c11.721,0,22.74-4.565,31.027-12.853l25.124-25.123    C495.499,203.428,495.499,175.589,478.389,158.48z" fill="#e99413" data-original="#000000" style="" class=""/>
	</g>
</g>
<g xmlns="http://www.w3.org/2000/svg">
	<g>
		<path d="M245.658,391.21L120.792,266.344c-8.289-8.289-19.307-12.853-31.028-12.853c-11.721,0-22.74,4.565-31.027,12.853    l-25.124,25.124c-17.109,17.108-17.109,44.947,0,62.056L158.479,478.39c8.554,8.555,19.791,12.832,31.028,12.832    s22.474-4.277,31.028-12.832l25.123-25.124c8.287-8.288,12.853-19.307,12.853-31.028    C258.511,410.517,253.946,399.499,245.658,391.21z" fill="#e99413" data-original="#000000" style="" class=""/>
	</g>
</g>
<g xmlns="http://www.w3.org/2000/svg">
	<g>
		<path d="M499.165,71.207l-58.371-58.371c-17.104-17.113-44.943-17.113-62.056,0l-2.311,2.311l120.427,120.427l2.311-2.311    C516.278,116.15,516.278,88.31,499.165,71.207z" fill="#e99413" data-original="#000000" style="" class=""/>
	</g>
</g>
<g xmlns="http://www.w3.org/2000/svg">
	<g>
		<path d="M15.146,376.428l-2.311,2.311c-17.113,17.113-17.113,44.953,0,62.056l58.371,58.371    c8.552,8.562,19.785,12.833,31.028,12.833c11.233,0,22.467-4.271,31.028-12.833l2.311-2.311L15.146,376.428z" fill="#e99413" data-original="#000000" style="" class=""/>
	</g>
</g>
<g xmlns="http://www.w3.org/2000/svg">
</g>
<g xmlns="http://www.w3.org/2000/svg">
</g>
<g xmlns="http://www.w3.org/2000/svg">
</g>
<g xmlns="http://www.w3.org/2000/svg">
</g>
<g xmlns="http://www.w3.org/2000/svg">
</g>
<g xmlns="http://www.w3.org/2000/svg">
</g>
<g xmlns="http://www.w3.org/2000/svg">
</g>
<g xmlns="http://www.w3.org/2000/svg">
</g>
<g xmlns="http://www.w3.org/2000/svg">
</g>
<g xmlns="http://www.w3.org/2000/svg">
</g>
<g xmlns="http://www.w3.org/2000/svg">
</g>
<g xmlns="http://www.w3.org/2000/svg">
</g>
<g xmlns="http://www.w3.org/2000/svg">
</g>
<g xmlns="http://www.w3.org/2000/svg">
</g>
<g xmlns="http://www.w3.org/2000/svg">
</g>
</g></svg>
