<?xml version="1.0" standalone="yes"?>
<svg width="200" height="200">
<path style="fill:#000000; stroke:none;" d="M0 0L0 200L83 200L83 199C74.5929 198.313 59.0457 194.982 53.7392 187.787C50.2351 183.036 51.6187 174.616 50.6759 169C48.6328 156.83 45.5829 145.649 41.2361 134.015C38.4719 126.617 30.0232 124.315 27.5177 116C25.0339 107.756 22.2106 91.4908 23.4869 83.0039C23.9754 79.7557 27.4568 77.9529 27.8256 74.8302C28.2083 71.5904 24.789 68.8573 23.7384 66C22.0742 61.4737 22.675 54.7158 23.2894 50C26.8381 22.7589 57.027 3.12146 83 1L57 0L0 0z"/>
<path style="fill:#5e413b; stroke:none;" d="M50 12L50 13L53 16L49 16L49 17L51 18C44.7382 20.2649 38.697 18.5247 35 25L38 23L45 24L45 25L43 25L43 26L47 26L42 29L42 30L45 30C40.3384 37.3854 36.0262 39.5041 36 49L37 49L40 46L40 58C44.1756 55.0498 43.6394 47.7196 45.0309 43C47.289 35.3404 51.6329 27.7295 57.598 22.3287C78.6363 3.28069 117.772 10.0675 139.996 22.1875C147.319 26.1812 150.24 33.4652 158 37L160 47L164 91L166 91C167.567 71.3155 171.799 56.7687 167.775 37C165.844 27.5099 162.595 17.5192 152 15C152 18.4983 148.036 18.9201 145 19L145 16L139 13L141 10L137 13L138 9L135 11L134 8L132 10L131 10L128 9L128 7L126 8C127.187 -1.06195 113.311 0.000396729 107 0C85.2712 -0.00138855 69.9825 3.68059 50 12z"/>
<path style="fill:#000000; stroke:none;" d="M117 0L117 1C144.847 4.59625 167.595 20.272 171.7 49C172.919 57.5307 169.521 65.7495 170.238 73.9606C170.551 77.5547 173.98 79.5172 174.513 83.0147C175.959 92.5039 172.827 107.873 170.086 117C167.878 124.355 161.123 126.796 157.969 133.104C153.432 142.179 146.491 156.896 145.634 167C145.18 172.366 147.171 177.632 147 183L150 187L145 187C139.158 194.863 126.476 198.226 117 199L117 200L200 200L200 0L117 0z"/>
<path style="fill:#382d2d; stroke:none;" d="M126 3L126 8L128 9L131 10L132 10L135 11L138 9L137 13L141 10L139 13L145 16L145 19L153 17L153 14L126 3z"/>
<path style="fill:#dd9a8a; stroke:none;" d="M90 11L90 12L111 13L111 23L112 23L115 21L116 26L117 26L118 22L127 26L127 30C130.835 30.5128 128.666 34.1704 128 37L130 40L131 40L133 35L134 35L136 38L135 54L135 55L138 63L148 57L144 46L145 42L143 43L143 42L138 28L144 31C133.001 12.0371 109.581 11 90 11z"/>
<path style="fill:#8c6a5f; stroke:none;" d="M108 11L108 12L112 12L108 11z"/>
<path style="fill:#d89c8c; stroke:none;" d="M32 90L36 124L32 123C33.3119 127.153 35.8577 127.772 40 128L37 109L36 109L35 111L33 96L34 96L34 101L35 101L35 98L41 98L44 49L45 49L51 56L61 27L65 30L70 25L75 26L75 24L77 25L80 19L81 19L82 21C87.5742 18.7757 87.2952 18.099 88 12C68.4068 12 47.248 23.5119 44 43C43.532 45.808 44.8079 53.661 43 58C41.9241 60.5821 39.0759 62.4179 38 65C35.8123 70.2505 38.6804 91.6701 32 90z"/>
<path style="fill:#fbeae2; stroke:none;" d="M98 53L99 53L111 13C106.603 12.4443 90.9654 9.15289 88.1327 13.6034C86.2795 16.515 90.296 22.2844 91.3958 25C94.9744 33.8353 97.5896 43.4418 98 53z"/>
<path style="fill:#2f2226; stroke:none;" d="M41 19C42.9338 19.7069 52.7625 19.5544 49 17L49 16L53 16C49.6756 11.0397 44.1426 15.8328 41 19z"/>
<path style="fill:#f0b3a5; stroke:none;" d="M88 18L81 19L80 19L77 25L75 26L70 25L65 30L61 27C58.9512 33.1464 52.0354 37.7873 51 44C50.5182 46.8906 52 49.2706 52 52C52 51.9674 49.6432 55.9296 50 57C51.7289 62.1867 58.3387 63.3066 59 60L68 62L76 67L76 68L72 68L72 69C77.7409 69.263 83.2074 70.6282 86 76C71.0864 74.4724 57.2048 61.2144 46 78L70 74.9352L86 78L89.4221 88L87 113L96 111L94 108C95.167 103.932 94.952 101.072 91 99L92 95L95 96C101.7 82.3427 102 106.752 102 111C116.057 112.616 106.794 91.9996 110 83L108 79L110 82L123 74.9591L153 80C151.132 59.6348 122.867 74.5034 112 75C117.975 67.4389 131.86 66.006 141 66L141 61L138 63L135 55L135 54L136 38L134 35L133 35L131 40L130 40L128 37C129.072 34.0821 130.959 30.506 127 30L127 26L118 22L117 26L116 26L115 21L112 23L111 23L108 20L99 53L98 53C97.7741 42.0541 95.0221 26.6918 88 18z"/>
<path style="fill:#956f65; stroke:none;" d="M133 20L143 27C140.796 22.8883 137.608 20.6984 133 20z"/>
<path style="fill:#774b47; stroke:none;" d="M138 21C149.391 35.7315 158.374 49.983 161 69L162 69C162.022 61.1816 163.993 54.2039 160 47C164.81 44.3861 158.44 40.25 158 37L138 21z"/>
<path style="fill:#3a2c2a; stroke:none;" d="M38 23C38 24.7887 28.4636 28.2077 35 29L35 30L33 30L33 31L36 32L32 34L35 35L35 36L31 36C31.942 38.2878 32.5626 38.6583 30 39L30 40L33 40L33 41L29 46C33.5745 48.2715 29.8093 53.7998 29 58L32 56C29.2894 66.4771 29.1639 80.7568 33 91C38.2032 86.2304 35.6667 76.513 35.6667 70C35.6667 61.7544 33.5081 47.5128 37 40C38.459 36.861 41.5272 36.2031 43.5 33.6667C45.3479 31.2909 44.4232 30.2937 42 30L42 29L47 26L43 26L43 25L45 25L38 23z"/>
<path style="fill:#c58778; stroke:none;" d="M142 27L144 31L138 28L143 43L145 42L145 43L144 45L144 46L146 56L152 51L153 51L157 55C153.448 43.7176 152.359 34.4266 142 27z"/>
<path style="fill:#ffffff; stroke:none;" d="M166 28L167 29L166 28z"/>
<path style="fill:#8d8d8d; stroke:none;" d="M31.3333 29.6667L31.6667 30.3333L31.3333 29.6667z"/>
<path style="fill:#534847; stroke:none;" d="M32 29L29 45L33 41L33 40L30 40L30 39L33 39L31 36L35 36L35 35L32 34L36 32L33 31L33 30L35 30L32 29z"/>
<path style="fill:#8e898e; stroke:none;" d="M166 29L166 32L167 32L166 29z"/>
<path style="fill:#fefefe; stroke:none;" d="M30 30C24.5027 40.5275 16.5909 62.9561 28 72L26.2091 49L30 30z"/>
<path style="fill:#d2c7c7; stroke:none;" d="M30 32L30 35L31 35L30 32z"/>
<path style="fill:#ffffff; stroke:none;" d="M167 33L168 34L167 33z"/>
<path style="fill:#c2bfc2; stroke:none;" d="M167 35L169 42L170 42L167 35z"/>
<path style="fill:#777170; stroke:none;" d="M28 40L27 52L28 52L28 40z"/>
<path style="fill:#a39f9f; stroke:none;" d="M169 42L170 47L171 47L169 42z"/>
<path style="fill:#554840; stroke:none;" d="M28 45L30 84L31 84L32 56L29 58C30.3881 52.8522 34.118 47.7375 28 45z"/>
<path style="fill:#b9b7b7; stroke:none;" d="M26 46L26 60L27 60L26 46z"/>
<path style="fill:#97665c; stroke:none;" d="M38 46C33.5098 56.5967 35.9988 70.6922 36 82L37 82L43 56L42 56L40 58L40 46L38 46z"/>
<path style="fill:#b9b0b4; stroke:none;" d="M171 47L171 52L172 52L171 47z"/>
<path style="fill:#ebc5b8; stroke:none;" d="M44 49L41 74L59 66.4545L76 68L76 67L68 62L59 60C53.8098 63.5172 47.0496 52.3801 44 49z"/>
<path style="fill:#d6a191; stroke:none;" d="M152 51L148 56C155.79 60.4917 158.879 77.5093 158.996 86C159.054 90.1894 159.798 94.5379 156 97L156 98C165.982 97.6731 163.414 89.4489 162.424 82C160.947 70.8849 162.046 58.6242 152 51z"/>
<path style="fill:#938e8e; stroke:none;" d="M171 52L171 66L172 66L171 52z"/>
<path style="fill:#e5c0ae; stroke:none;" d="M145 69L156 73C155.409 59.2421 146.358 50.985 145 69z"/>
<path style="fill:#f6ded3; stroke:none;" d="M141 67L146 67L146 60L141 67z"/>
<path style="fill:#2f2525; stroke:none;" d="M163 61L165 75L166 75L166 70L168 71C167.901 66.3679 167.66 62.8285 163 61z"/>
<path style="fill:#da9284; stroke:none;" d="M111 71L116 64L111 71z"/>
<path style="fill:#936d66; stroke:none;" d="M119 64L119 67C121.006 65.8734 121.006 65.1266 119 64z"/>
<path style="fill:#bfb9bf; stroke:none;" d="M28 65L29 81L30 81L28 65z"/>
<path style="fill:#97796b; stroke:none;" d="M47 71L47 72L70 68C62.2976 64.2984 53.8297 66.5562 47 71z"/>
<path style="fill:#ad8f84; stroke:none;" d="M131 66L131 67L141 67L131 66z"/>
<path style="fill:#d5cdcd; stroke:none;" d="M170 66L170 71L171 71L170 66z"/>
<path style="fill:#d88873; stroke:none;" d="M126 67L126 68L143 68L153 80C136.426 76.0101 124.931 70.9746 110 82L110 79L108 79L110 83L111 114L117 113L111 97L112 97L114 102L115 102L114 97L140.999 96.7716L155 87L148 102L147 102L147 98L144 99L145 104L122 103L122 108L140 107L139 111L153 103L136 137C146.621 131.189 157.383 108.779 156 97L159 97C159 91.3966 160.131 84.3592 158.297 79.0039C153.771 65.7873 136.948 67 126 67z"/>
<path style="fill:#817c80; stroke:none;" d="M169 67L168 78L169 78L169 67z"/>
<path style="fill:#694d40; stroke:none;" d="M56 68L56 69L86 75C80.8811 66.004 64.8584 68 56 68z"/>
<path style="fill:#665143; stroke:none;" d="M112 75L143 69C135.255 65.75 116.209 66.9553 112 75z"/>
<path style="fill:#ffffff; stroke:none;" d="M13 71L15 73L15 71L13 71z"/>
<path style="fill:#d28477; stroke:none;" d="M40 101L48 114L44 103L58 109L43.9198 92L47 71C39.3743 75.0535 38.481 82.0614 39.5764 90C40.0265 93.2619 42.3329 98.6906 40 101z"/>
<path style="fill:#eea999; stroke:none;" d="M49 71C40.5985 82.4739 40.9537 94.3611 52.7099 103.3C56.0183 105.816 61.5986 106.113 64.1427 109.317C68.6302 114.969 72.4687 129.853 74 137C67.078 128.639 62.3694 118.271 59 108L44 103L48 114L40 101L43 100L43 99L35 98C35.1704 118.59 44.5999 139.145 51.7917 158C53.8484 163.392 52.7872 172.99 56.0278 177.44C57.9575 180.089 62.1726 180.106 64.7407 181.924C68.6778 184.71 74.8251 190.728 77 195L91 200L91 199C81.0926 193.434 72.9318 186.126 66 177L68 178L56 160L61 161L61 165L62 165L62 163L63 163C64.2591 167.466 67.2115 171.545 72 172L75 176C74.7971 169.129 72.5552 159.109 66 156L66 155L71 155L69 145L70 145L75 150L86 146L84 144C93.0755 140.303 103.603 140.021 113 143L113 144L106 143L126 150L127 150L129 148L127 155L131 155C126.076 160.033 120.789 170.916 122 178L123 178L126 171C131.116 171.086 130.746 167.327 127 165L132 163L132 168L135 163L136 163L130 178C134.753 175.459 135.886 171.576 139.107 167.576C151.685 151.958 157.146 128.894 158 109L157 109C149.707 121.877 147.871 143.156 132 148L139 127L132 138L131 138L139 122L135 119L134 119L124 137L133 109L122 108L122 103L145 104L147 98L147 102L148 102L155 87L139 97.1458L114 97C118.888 104.007 121.179 104.673 120 114L119 114L116 101L112 97L111 97L117 113L114 114L117 134L114 126L102 130L104 133L105 133L112 130L106 133C104.994 139.306 100.468 138.996 95 139L92 133C87.0905 132.277 85.0281 130.711 81 134L85 100C80.4085 103.114 79.9981 108.856 79 114L78 114C77.5951 108.905 75.8635 104.803 80 101C75.5786 94.1967 67.6838 98.94 61 97.6597C53.1398 96.1541 48.1888 88.7557 45 82L53 83L52 80L59 77L59 76L46 78L51 71L49 71z"/>
<path style="fill:#886f6a; stroke:none;" d="M104 71L105 74L104 71z"/>
<path style="fill:#d27868; stroke:none;" d="M52 80L53 83L45 82C47.3377 89.9584 51.1842 92.308 59 92L59 91L50 88C53.538 84.0337 58.5988 78.2909 64.0147 77.2245C75.1462 75.0329 85.9664 82.3662 81 94L86 93L85 91L89 90L85 87C88.9784 68.1442 59.9432 76.5948 52 80z"/>
<path style="fill:#f9f3f1; stroke:none;" d="M169 74L169 79L170 79L169 74z"/>
<path style="fill:#f6e6e2; stroke:none;" d="M28 75L23 86L24 86L26 79C28.6489 78.4324 29.3548 77.4122 28 75z"/>
<path style="fill:#a68d7d; stroke:none;" d="M81 75L81 76L86 76L81 75z"/>
<path style="fill:#93746b; stroke:none;" d="M162 75L162 83L163 83L162 75z"/>
<path style="fill:#aa4c41; stroke:none;" d="M70 76L70 77L73 80L84 86C80.6192 80.8306 76.2778 76.8384 70 76z"/>
<path style="fill:#ab5248; stroke:none;" d="M114 86L128 77C122.186 75.1142 117.011 81.7368 114 86z"/>
<path style="fill:#c48f81; stroke:none;" d="M59 80L65 79L65 80L63 80L63 81L80 85L80 90C71.861 92.1731 67.1238 92.5977 59 90L60 86L59 86L56 90L56 91C62.8107 93.4971 69.7634 95.4449 76.9599 92.74C86.5184 89.1472 80.0197 81.4165 73 80C72.3466 74.8004 61.2807 76.2343 59 80z"/>
<path style="fill:#e59689; stroke:none;" d="M85 78L85 87L89 90L85 91L86 93L81 94L83 89L69 93.946L52 93L52 94L79 100L83 98L85 100L84 115C92.1219 109.143 90.2628 85.071 85 78z"/>
<path style="fill:#d3a091; stroke:none;" d="M168 78L165.62 103L158 128L164 125C160.047 122.313 163.54 118.269 164.968 114.714C168.214 106.637 166.018 97.3263 168 89L169 89L169 99L170 99L174 79L168 78z"/>
<path style="fill:#e9beb0; stroke:none;" d="M26 79L24 86L25 86L25 83L30 86C29.8031 82.4309 29.5383 80.2432 26 79z"/>
<path style="fill:#905c5d; stroke:none;" d="M50 88L65 80C59.0419 77.892 53.0073 83.2516 50 88z"/>
<path style="fill:#f7ded8; stroke:none;" d="M171 80L174 86L175 86L175 80L171 80z"/>
<path style="fill:#26161f; stroke:none;" d="M53 88L58 90C61.3464 83.9025 67.477 82.5816 74 84C69.2373 76.6535 57.0782 82.8036 53 88z"/>
<path style="fill:#2e191a; stroke:none;" d="M124 84L128 88L130 88L131 87L129 83L143 88C139.919 82.073 128.618 77.597 124 84z"/>
<path style="fill:#765253; stroke:none;" d="M137 82L137 83L145 88C143.199 84.1931 141.295 82.1827 137 82z"/>
<path style="fill:#3e485a; stroke:none;" d="M74 84L70 83L71 87L72 87L80 87C78.6484 84.553 76.5972 81.754 74 84z"/>
<path style="fill:#535b6a; stroke:none;" d="M118 87L124 88L125 88L127 85L127 84L125 82L118 87z"/>
<path style="fill:#c19481; stroke:none;" d="M25 83L28 100L29 100L29 89L32 90L31 84L29 86L25 83z"/>
<path style="fill:#6d768b; stroke:none;" d="M77 86L77 85L67 85L70 85C67.9494 82.9444 64.7288 84.638 65.1759 87.8711C66.178 95.1167 74.9024 87.9166 77 86z"/>
<path style="fill:#7e7e81; stroke:none;" d="M129.667 83.3333L130.333 83.6667L129.667 83.3333z"/>
<path style="fill:#cdbdbf; stroke:none;" d="M62 84C59.8227 95.8343 73.1602 92.4566 80 90L75 86C71.342 92.519 65.4496 91.0999 64 84L62 84z"/>
<path style="fill:#33414f; stroke:none;" d="M64 84L64 87L65 87L66 84L64 84z"/>
<path style="fill:#efeef3; stroke:none;" d="M68 84L69 85L68 84z"/>
<path style="fill:#0d0b12; stroke:none;" d="M70 84L67 85L71 88L70 84z"/>
<path style="fill:#d7d8db; stroke:none;" d="M129.667 84.3333L130.333 84.6667L129.667 84.3333z"/>
<path style="fill:#6e7b94; stroke:none;" d="M131 84L130 88L128 88L125 85C124.673 95.0919 133.192 88.5865 137 85L131 84z"/>
<path style="fill:#a79596; stroke:none;" d="M60 85L62 91L62 85L60 85z"/>
<path style="fill:#808290; stroke:none;" d="M121 85L121 86L123 88L124 88L121 85z"/>
<path style="fill:#c8bdb3; stroke:none;" d="M135 85C132.605 89.4671 129.755 90.7127 125 92L125 93L138 91L138 85L135 85z"/>
<path style="fill:#f5d1c9; stroke:none;" d="M24 86L30 123L36 124L28.4707 105.83L24 86z"/>
<path style="fill:#e5e1e1; stroke:none;" d="M127 92L123 86C116.034 88.3207 122.98 91.7791 127 92z"/>
<path style="fill:#aa6f6f; stroke:none;" d="M138 86L138 91L133 92L133 93L140 92L141 89L138 86z"/>
<path style="fill:#907873; stroke:none;" d="M163 87L163 91L164 91L163 87z"/>
<path style="fill:#f4d1c8; stroke:none;" d="M172 87L169.246 106.715L161 125L166 126C170.378 112.939 173.991 101.268 174 87L172 87z"/>
<path style="fill:#583536; stroke:none;" d="M139 91L143 88L139 91z"/>
<path style="fill:#e2b7ae; stroke:none;" d="M29 89L31 113L32 113C31.8824 107.303 33.3797 92.1954 29 89z"/>
<path style="fill:#e7beaf; stroke:none;" d="M168 89L166 113L167 113C169.835 105.463 171.27 96.7911 168 89z"/>
<path style="fill:#fadcd2; stroke:none;" d="M95 96L92 95L91 99C94.3785 101.645 94.8709 103.856 94 108L96 111C91.486 111.209 78.329 115.322 84.0239 122.377C87.1188 126.211 88.8356 120.109 89 118L92 123L106 123L107 118L108 118C109.645 121.62 111.002 123.35 115 124C114.969 115.163 110.75 111.769 102 111C102 105.775 103.113 99.1153 101.682 94.0741C100.116 88.5584 95.9573 92.7868 95 96z"/>
<path style="fill:#ffffff; stroke:none;" d="M5 91C3.85281 95.8319 3.0899 100.974 9 102L5 91z"/>
<path style="fill:#aa715f; stroke:none;" d="M164 91L162 111L163 111L166 91L164 91z"/>
<path style="fill:#e7bca9; stroke:none;" d="M163 95L156 98C157.427 117.011 137.046 130.845 132 148C145.199 145.158 146.051 133.949 149.545 123.17C151.184 118.113 155.095 113.963 157 109L158 109L157 121L158 121L162 100L163 100L163 103L164 103L163 95z"/>
<path style="fill:#a66f59; stroke:none;" d="M33 96L35 111L36 111L33 96z"/>
<path style="fill:#faded6; stroke:none;" d="M82 98C76.0054 103.428 77.0343 106.522 78 114L79 114L82 98z"/>
<path style="fill:#faddd2; stroke:none;" d="M115 99L119 114L120 114C121.215 107.455 122.086 101.837 115 99z"/>
<path style="fill:#f0d3c9; stroke:none;" d="M162 100L149.865 149L136 173L144 165L144 170L145 170L159.576 120L162 100z"/>
<path style="fill:#b08c83; stroke:none;" d="M105 103L105 106L106 106L107 103L105 103z"/>
<path style="fill:#f0afa3; stroke:none;" d="M141 111L138 110L135 119L141 120L146 110L147 110L141 123C147.874 120.659 152.647 109.809 153 103L141 111z"/>
<path style="fill:#df998b; stroke:none;" d="M110 105L109 113C112.314 110.85 112.303 108.057 110 105z"/>
<path style="fill:#f9d8d0; stroke:none;" d="M58 107C61.8389 116.949 65.6752 129.917 74 137C72.943 128.525 67.2979 107.305 58 107z"/>
<path style="fill:#f8dad3; stroke:none;" d="M124 137C132.405 129.848 135.944 116.941 140 107C130.133 107.324 125.492 128.328 124 137z"/>
<path style="fill:#f7c8bc; stroke:none;" d="M51 110C53.4583 118.534 59.1244 130.303 66 136C63.3638 127.522 57.3256 116.24 51 110z"/>
<path style="fill:#f7cabb; stroke:none;" d="M146 110L131 138L132 138C136.335 131.569 147.317 117.904 146 110z"/>
<path style="fill:#fef9f3; stroke:none;" d="M27 114L29 121L30 121L27 114z"/>
<path style="fill:#97746d; stroke:none;" d="M123 114L125 118L126 114L123 114z"/>
<path style="fill:#ffffff; stroke:none;" d="M1 115L3 124L4 124L1 115M18 117L21 128L22 128L18 117z"/>
<path style="fill:#ebc4b5; stroke:none;" d="M89 118C88.2597 122.626 86.3447 123.532 82 122L81 134L84 125L114 126L117 134L116 122L115 122C111.47 123.968 109.917 120.912 108 118L107 118L106 123L92 123L91 118L89 118z"/>
<path style="fill:#ac7f7b; stroke:none;" d="M135 119L135 122L140 122L140 119L135 119z"/>
<path style="fill:#ffffff; stroke:none;" d="M168 120L166 125L167 125L168 120M31.3333 123.667L31.6667 124.333L31.3333 123.667M195.333 123.667L195.667 124.333L195.333 123.667z"/>
<path style="fill:#d4a392; stroke:none;" d="M94 125L94 126C99.0515 128.414 102.095 127.174 107 125L94 125z"/>
<path style="fill:#d68777; stroke:none;" d="M84 125L84 132L92 133L95 139C100.656 138.999 105.472 139.778 106 133L112 130L105 133L104 133L102 130L107 128L84 125z"/>
<path style="fill:#633f37; stroke:none;" d="M90 125L90 127L94 127L94 125L90 125z"/>
<path style="fill:#461714; stroke:none;" d="M104 126L104 127L108 125L104 126z"/>
<path style="fill:#955d50; stroke:none;" d="M91 127L91 128L96 128L91 127z"/>
<path style="fill:#fefdfb; stroke:none;" d="M157 128L154 144L155 144L165 126L157 128z"/>
<path style="fill:#f5e8e2; stroke:none;" d="M37 128L37 129L51 159L52 159L42 128L37 128z"/>
<path style="fill:#a7766a; stroke:none;" d="M114 139L114 141L116 141L116 139L114 139z"/>
<path style="fill:#d57a7e; stroke:none;" d="M84 144L84 145L113 144C106.523 138.367 91.0317 140.061 84 144z"/>
<path style="fill:#b9696f; stroke:none;" d="M99 146L99 147C104.915 147.001 112.548 146.336 116 152L121 149C115.72 145.388 104.811 143.252 99 146z"/>
<path style="fill:#c8836a; stroke:none;" d="M69 145L71 155L66 155L66 156C71.9768 160.096 74.5395 168.907 75 176L72 172C67.5179 171.164 64.8078 166.953 63 163L62 163L62 165L61 165L61 161L56 160C56.5892 168.113 63.0529 172.28 68 178L66 177L66 178L73 184L71 181C80.0791 186.035 89.3049 189.421 100 188.895C103.105 188.742 109.021 188.039 110.303 184.606C112.126 179.725 107.047 170.361 105 166L119 166L119 173L121 164L103 165L105 177L108 183L100 184L100 180L98 180L98 184L90 183L95 165C85.7888 164.975 79.892 163.195 74 156L81 159L78 153L84 153L83 149L75 148L75 150L69 145z"/>
<path style="fill:#ae565a; stroke:none;" d="M77 148L77 149L98 147C91.8104 143.292 83.312 145.46 77 148z"/>
<path style="fill:#8c4549; stroke:none;" d="M87 147L87 148L102 149L102 147L87 147z"/>
<path style="fill:#662326; stroke:none;" d="M102 147L102 148L110 148L102 147z"/>
<path style="fill:#e27177; stroke:none;" d="M116 149L115 149C107.576 162.837 88.9683 151.861 78 153L81 159L74 156C76.6478 160.411 79.0053 162.604 84 164L80 161L80 160L91 161C94.939 158.016 102.061 158.016 106 161C109.016 159.995 110.705 159.179 110 162L122 161L131 155L127 155L129 148L127 150L116 149z"/>
<path style="fill:#ffffff; stroke:none;" d="M187 147L188 148L187 147z"/>
<path style="fill:#eba4aa; stroke:none;" d="M83 148C84.8642 159.453 111.707 159.197 115 149L83 148z"/>
<path style="fill:#ffffff; stroke:none;" d="M13 149C14.939 155.085 18.8338 160.282 24 164L13 149z"/>
<path style="fill:#8e6457; stroke:none;" d="M137 149L138 152L139 152L139 149L137 149z"/>
<path style="fill:#b98578; stroke:none;" d="M140 149L140 153L134 154L137 160L142 160L139 157L145 153L145 152L140 149z"/>
<path style="fill:#ffffff; stroke:none;" d="M31 150L33 153L31 150M185 150L180 159L185 150z"/>
<path style="fill:#bf6f63; stroke:none;" d="M53 152L53 153L63 156L53 152z"/>
<path style="fill:#fefefe; stroke:none;" d="M49 156C48.2307 165.293 49.8858 181.593 54 190L55 190C55 179.539 57.5394 163.779 49 156z"/>
<path style="fill:#c36a5b; stroke:none;" d="M126 157L112 164L112 165L121 164C121.174 173.199 115.765 178.077 112 186C117.632 185.423 123.308 183.181 126 178L119 180C121.456 173.472 128.767 164.162 126 157z"/>
<path style="fill:#e29a88; stroke:none;" d="M80 160L80 161L95 165L93 171L96 166C100.546 166.351 101.967 168.045 104 172L105 172L103 165C109.02 164.742 117.599 164.619 121 159L110 162L103 161.806L80 160z"/>
<path style="fill:#c15c4b; stroke:none;" d="M91 159L91 162L106 162L106 159L91 159z"/>
<path style="fill:#ffffff; stroke:none;" d="M179 160L178 162L179 160z"/>
<path style="fill:#a67467; stroke:none;" d="M127 165L132 167L132 163L127 165z"/>
<path style="fill:#d67f6c; stroke:none;" d="M135 163L131 167L126 171L123 178L120 176L119 180C127.136 178.622 139.334 173.728 135 163z"/>
<path style="fill:#d0a688; stroke:none;" d="M143 165C136.791 175.195 119.918 187.131 118 199C127.364 197.739 137.457 194.817 145 189L145 188L143 165z"/>
<path style="fill:#e9ab9b; stroke:none;" d="M80 166C78.3813 171.962 81.914 179.579 87 183L92 166L86 169L80 166z"/>
<path style="fill:#edb8aa; stroke:none;" d="M96 166L92 180L93 180L93 177L94 177L96 180L96 171L97 171L97 177L106 176C104.217 170.255 102.404 166.213 96 166z"/>
<path style="fill:#e3a08d; stroke:none;" d="M105 166C106.498 170.495 112.088 179.933 109.788 184.606C105.982 192.337 91.1789 187.488 85 187L85 188C98.4496 191.78 111.936 190.04 124 183L124 182L112 186C116.773 178.982 118.999 174.539 119 166L105 166z"/>
<path style="fill:#bd916f; stroke:none;" d="M140 169C131.611 177.365 121.008 184.619 110 189L113 190C113.016 210.377 126.594 185.109 132.21 179.561C135.198 176.609 140.094 173.464 140 169z"/>
<path style="fill:#fefefe; stroke:none;" d="M145 169C142.75 175.008 142.171 181.813 144 188L150 187L147 183L145 169z"/>
<path style="fill:#e7a28e; stroke:none;" d="M92 171L90 183L98 184L98 180L100 180L100 184L108 183L108 177L105 180L104 177L103 177L103 180L102 180L97 177L97 171L96 171L96 180L94 177L93 177L93 180L92 180L92 171z"/>
<path style="fill:#9d7464; stroke:none;" d="M113 172L113 175L114 175L113 172z"/>
<path style="fill:#9b746d; stroke:none;" d="M104 176L106 180L104 176z"/>
<path style="fill:#aa7767; stroke:none;" d="M101 177L102 180L103 180L103 177L101 177z"/>
<path style="fill:#f1d4c7; stroke:none;" d="M55 178C55 181.451 54.0863 186.571 56.0278 189.61C60.612 196.784 77.3355 198.514 85 200L77 195C74.2891 186.288 63.163 180.362 55 178z"/>
<path style="fill:#9d6944; stroke:none;" d="M71 181C81.4985 199.271 94.7954 200 114 200L113 190L92 189.535L71 181z"/>
<path style="fill:#ffff00; stroke:none;" d="M139 192L140 193L139 192z"/>
<path style="fill:#ff0000; stroke:none;" d="M137 193L138 194L137 193M125 197L126 198L125 197z"/>
<path style="fill:#ffffff; stroke:none;" d="M121 198L122 199L121 198z"/>
</svg>
